<svg width="100" height="98" viewBox="0 0 100 98" fill="none" xmlns="http://www.w3.org/2000/svg">
<g id="LOGO">
<g id="Vector">
<path d="M67.3598 1.65866C74.1095 4.42905 79.4488 8.40834 79.4488 10.675C79.4488 11.3802 78.794 12.841 77.9377 13.9995L76.4769 16.0647L79.2977 18.4825C81.917 20.7492 82.2696 20.9003 84.5362 20.7492C86.6518 20.5981 87.1555 20.7492 88.2637 21.9581C89.0696 22.8647 89.5229 23.8722 89.5229 25.0307C89.5229 26.29 89.9259 27.0959 91.1852 28.204L92.797 29.6648L96.3734 26.0885L100 22.5625L98.086 20.8499C96.9274 19.7921 95.6682 19.1373 94.8622 19.1373C94.1067 19.1373 93.0489 18.8855 92.4444 18.5832C91.1852 17.878 90.0266 15.2084 90.3792 13.5462C90.5807 12.438 90.0267 11.8335 86.1481 8.66019C83.7303 6.64536 80.3555 4.37868 78.6429 3.57274C75.4695 2.01125 69.1732 0.50013 66.2517 0.50013C64.6902 0.50013 64.7405 0.600872 67.3598 1.65866ZM78.391 4.98313C80.0029 5.83943 83.0251 7.85426 85.0903 9.46612C88.717 12.3373 88.8681 12.5891 89.1703 14.9062C89.3718 16.9714 89.7244 17.6262 91.3363 18.9862C92.4444 19.9936 93.7541 20.6484 94.56 20.6484C95.3156 20.6484 96.3734 21.1521 96.9778 21.807L98.086 22.9655L95.5171 25.3329C93.0993 27.5492 92.8474 27.65 92.0415 26.9448C91.5378 26.4914 91.0341 25.2825 90.8326 24.2751C90.6815 23.0662 89.9763 21.807 89.0192 20.9003C87.6592 19.5906 87.0044 19.3892 84.6874 19.3388C82.2192 19.2884 81.7155 19.1373 80.154 17.5254L78.3406 15.7625L79.751 13.2943C81.111 10.8261 81.111 10.8261 80.2044 8.91205C79.7006 7.85426 78.3406 6.34314 77.1317 5.48684C75.0665 4.07645 74.5125 3.52237 75.1673 3.52237C75.3184 3.52237 76.7791 4.1772 78.391 4.98313Z" fill="#404040"/>
<path d="M78.391 4.98313C80.0029 5.83943 83.0251 7.85426 85.0903 9.46612C88.717 12.3373 88.8681 12.5891 89.1703 14.9062C89.3718 16.9714 89.7244 17.6262 91.3363 18.9862C92.4444 19.9936 93.7541 20.6484 94.56 20.6484C95.3156 20.6484 96.3734 21.1521 96.9778 21.807L98.086 22.9655L95.5171 25.3329C93.0993 27.5492 92.8474 27.65 92.0415 26.9448C91.5378 26.4914 91.0341 25.2825 90.8326 24.2751C90.6815 23.0662 89.9763 21.807 89.0192 20.9003C87.6592 19.5906 87.0044 19.3892 84.6874 19.3388C82.2192 19.2884 81.7155 19.1373 80.154 17.5254L78.3406 15.7625L79.751 13.2943C81.111 10.8261 81.111 10.8261 80.2044 8.91205C79.7006 7.85426 78.3406 6.34314 77.1317 5.48684C75.0665 4.07645 74.5125 3.52237 75.1673 3.52237C75.3184 3.52237 76.7791 4.1772 78.391 4.98313Z" fill="#C4C4C4"/>
</g>
<g id="Vector_2">
<path d="M37.1373 5.08371C23.4868 7.5015 10.743 17.0719 4.44667 29.5639C-0.489662 39.4869 -1.39634 52.0796 2.12962 62.4056C6.20965 74.4442 14.1179 83.3598 25.8039 89.2029C32.3521 92.4266 37.4899 93.7362 43.9374 93.7866C52.2485 93.837 55.5226 92.3762 57.6886 87.7421C59.4012 83.9643 59.4515 79.2798 57.8397 75.8546C56.3789 72.8827 52.047 68.9538 46.2544 65.4782C36.9862 59.8871 34.0647 57.8219 32.8558 56.0085C31.0928 53.4396 31.1935 51.1729 33.1076 49.2589C34.518 47.8988 34.921 47.7477 36.9358 47.9996C38.2455 48.1003 40.0084 48.8055 41.2173 49.6114C44.0885 51.6263 44.3907 51.1226 44.6929 43.164C44.8944 37.6736 45.1463 36.2128 46.0026 34.7521C47.1611 32.7372 49.3774 31.1254 52.3996 30.0676C53.5582 29.6646 55.6737 28.9091 57.0337 28.4557C60.6101 27.1965 63.9849 23.6201 64.8412 20.2453C65.899 15.8127 64.2871 10.7252 61.1138 8.30743C57.8397 5.78889 54.1626 4.88223 46.7077 4.73111C42.9803 4.63037 38.6484 4.78148 37.1373 5.08371ZM52.2485 6.19186C56.0263 6.74593 59.0486 7.95483 61.2649 9.76818C62.7256 10.9267 63.8842 14.5534 63.7834 17.5253C63.582 22.7638 61.013 25.9372 55.5226 27.6498C48.4203 29.9165 45.247 32.2839 44.2396 36.1121C43.9374 37.1699 43.6351 40.3936 43.4336 43.2647C43.2825 46.1862 43.0811 48.604 42.9299 48.7551C42.8292 48.8559 41.721 48.5033 40.5121 47.8988C37.1373 46.2366 34.5684 46.4885 32.3017 48.604C30.5891 50.2663 30.4884 50.5181 30.6898 52.7848C30.841 54.1952 31.395 55.8574 32.0499 56.7641C33.4099 58.5774 36.9358 61.3478 40.4114 63.2115C48.4707 67.6945 54.3137 72.2783 56.2782 75.7539C57.5375 77.8694 57.7893 78.8768 57.7893 81.5969C57.7389 89.8073 53.2056 93.1318 42.9803 92.5273C36.281 92.1244 33.0573 91.3688 28.0706 89.0517C15.7297 83.4102 7.31781 74.3435 3.38889 62.456C1.72665 57.4693 1.17257 54.0944 1.22294 48.8559C1.27332 44.927 2.12962 38.0262 2.78444 37.0691C2.93555 36.7669 3.1874 36.0617 3.23777 35.5076C3.54 33.8454 6.15928 28.5565 8.57708 24.8794C10.8438 21.5046 15.9312 15.9638 17.7949 14.9564C18.349 14.6542 18.8527 14.3016 19.0038 14.1001C19.6083 13.2941 23.9905 10.6749 26.0557 9.86893C30.7906 7.95483 36.4825 6.44371 39.6558 6.19186C41.4692 6.04075 43.0307 5.83926 43.1314 5.73853C43.3329 5.53704 50.0322 5.88963 52.2485 6.19186Z" fill="#404040"/>
<path d="M52.2485 6.19186C56.0263 6.74593 59.0486 7.95483 61.2649 9.76818C62.7256 10.9267 63.8842 14.5534 63.7834 17.5253C63.582 22.7638 61.013 25.9372 55.5226 27.6498C48.4203 29.9165 45.247 32.2839 44.2396 36.1121C43.9374 37.1699 43.6351 40.3936 43.4336 43.2647C43.2825 46.1862 43.0811 48.604 42.9299 48.7551C42.8292 48.8559 41.721 48.5033 40.5121 47.8988C37.1373 46.2366 34.5684 46.4885 32.3017 48.604C30.5891 50.2663 30.4884 50.5181 30.6898 52.7848C30.841 54.1952 31.395 55.8574 32.0499 56.7641C33.4099 58.5774 36.9358 61.3478 40.4114 63.2115C48.4707 67.6945 54.3137 72.2783 56.2782 75.7539C57.5375 77.8694 57.7893 78.8768 57.7893 81.5969C57.7389 89.8073 53.2056 93.1318 42.9803 92.5273C36.281 92.1244 33.0573 91.3688 28.0706 89.0517C15.7297 83.4102 7.31781 74.3435 3.38889 62.456C1.72665 57.4693 1.17257 54.0944 1.22294 48.8559C1.27332 44.927 2.12962 38.0262 2.78444 37.0691C2.93555 36.7669 3.1874 36.0617 3.23777 35.5076C3.54 33.8454 6.15928 28.5565 8.57708 24.8794C10.8438 21.5046 15.9312 15.9638 17.7949 14.9564C18.349 14.6542 18.8527 14.3016 19.0038 14.1001C19.6083 13.2941 23.9905 10.6749 26.0557 9.86893C30.7906 7.95483 36.4825 6.44371 39.6558 6.19186C41.4692 6.04075 43.0307 5.83926 43.1314 5.73853C43.3329 5.53704 50.0322 5.88963 52.2485 6.19186Z" fill="#C0945C"/>
</g>
<g id="Vector_3">
<path d="M34.7195 8.76077C30.5891 11.0274 30.5891 17.8275 34.7698 19.9431C38.2454 21.7564 42.5773 20.2453 44.0381 16.7193C45.1966 13.8986 43.8366 10.3223 41.0158 8.71039C39.5551 7.90446 36.1802 7.90446 34.7195 8.76077ZM40.6632 9.31484C42.7788 10.3726 43.6855 11.9845 43.6855 14.503C43.6855 16.3667 43.3832 17.0216 41.9729 18.432C40.5625 19.8423 39.9077 20.1446 38.0439 20.1446C35.5254 20.1446 33.9135 19.2379 32.8557 17.1223C30.1861 11.9845 35.5254 6.6452 40.6632 9.31484Z" fill="#404040"/>
<path d="M40.6632 9.31484C42.7788 10.3726 43.6855 11.9845 43.6855 14.503C43.6855 16.3667 43.3832 17.0216 41.9729 18.432C40.5625 19.8423 39.9077 20.1446 38.0439 20.1446C35.5254 20.1446 33.9135 19.2379 32.8557 17.1223C30.1861 11.9845 35.5254 6.6452 40.6632 9.31484Z" fill="#FBC754"/>
</g>
<g id="Vector_4">
<path d="M21.5224 16.9712C18.3994 17.9786 16.989 19.7919 16.989 22.9653C16.989 24.3757 17.392 25.1816 18.7016 26.4913C20.112 27.9016 20.7668 28.2039 22.6305 28.2039C23.8394 28.2039 25.3506 27.8513 25.955 27.3979C27.315 26.4409 28.5743 24.1238 28.5743 22.5623C28.5743 20.749 26.7106 18.1297 24.7965 17.3238C22.9831 16.5682 22.7313 16.5682 21.5224 16.9712ZM26.4083 19.4897C28.9773 22.6631 27.2143 26.995 23.235 27.549C21.472 27.7505 20.9179 27.5994 19.5579 26.3905C18.5001 25.4335 17.8453 24.2749 17.6438 23.066C17.392 21.4038 17.5431 21.0008 19.2053 19.3386C20.8676 17.6764 21.2202 17.5253 23.1846 17.7771C24.6957 17.9786 25.6024 18.4823 26.4083 19.4897Z" fill="#404040"/>
<path d="M26.4083 19.4897C28.9773 22.6631 27.2143 26.995 23.235 27.549C21.472 27.7505 20.9179 27.5994 19.5579 26.3905C18.5001 25.4335 17.8453 24.2749 17.6438 23.066C17.392 21.4038 17.5431 21.0008 19.2053 19.3386C20.8676 17.6764 21.2202 17.5253 23.1846 17.7771C24.6957 17.9786 25.6024 18.4823 26.4083 19.4897Z" fill="#2E6089"/>
</g>
<g id="Vector_5">
<path d="M9.08078 31.1759C7.06595 32.4351 6.41113 33.644 6.41113 36.2129C6.41113 37.7744 6.76373 38.6811 7.87188 39.89C9.18152 41.3508 9.68523 41.5522 11.8512 41.5522C14.7727 41.5522 16.7371 40.1419 17.4423 37.573C18.752 32.6366 13.3623 28.5062 9.08078 31.1759ZM14.4705 31.4781C16.3342 32.4351 16.989 33.644 16.989 36.1122C16.989 38.5804 15.9312 40.0411 13.6645 40.7967C10.1386 41.9552 6.91484 39.7389 6.91484 36.1626C6.91484 33.5937 7.62003 32.284 9.58449 31.4781C11.7001 30.5714 12.7075 30.5714 14.4705 31.4781Z" fill="#404040"/>
<path d="M14.4705 31.4781C16.3342 32.4351 16.989 33.644 16.989 36.1122C16.989 38.5804 15.9312 40.0411 13.6645 40.7967C10.1386 41.9552 6.91484 39.7389 6.91484 36.1626C6.91484 33.5937 7.62003 32.284 9.58449 31.4781C11.7001 30.5714 12.7075 30.5714 14.4705 31.4781Z" fill="#755BA3"/>
</g>
<g id="Vector_6">
<path d="M6.61261 47.2945C4.69852 48.4531 3.69111 50.8205 4.0437 53.2383C4.90001 58.5272 12.3549 59.585 14.6719 54.699C15.6793 52.5331 15.6793 51.7272 14.6719 49.5612C13.2112 46.4886 9.58449 45.4812 6.61261 47.2945ZM12.7075 48.5538C16.1327 51.979 13.6645 57.4694 9.13115 56.7642C6.81409 56.3613 5.50445 55.2027 5.10149 53.0872C4.29556 48.6545 9.63486 45.4812 12.7075 48.5538Z" fill="#404040"/>
<path d="M12.7075 48.5538C16.1327 51.979 13.6645 57.4694 9.13115 56.7642C6.81409 56.3613 5.50445 55.2027 5.10149 53.0872C4.29556 48.6545 9.63486 45.4812 12.7075 48.5538Z" fill="#404040"/>
</g>
<g id="Vector_7">
<path d="M11.8511 62.2545C9.13112 63.7153 8.17408 67.342 9.78594 70.0116C11.5993 73.1346 15.9312 73.7391 18.4497 71.3213C23.386 66.5864 17.8453 58.9804 11.8511 62.2545ZM18.2986 63.5138C19.8601 64.9746 20.2127 66.9894 19.306 69.1553C18.4497 71.2205 16.9386 72.2279 14.6215 72.1272C12.3548 72.0265 11.0956 71.2709 10.1385 69.4072C8.77852 66.7879 10.1385 63.4131 12.9593 62.3049C14.3193 61.7508 17.0897 62.4056 18.2986 63.5138Z" fill="#404040"/>
<path d="M18.2986 63.5138C19.8601 64.9746 20.2127 66.9894 19.306 69.1553C18.4497 71.2205 16.9386 72.2279 14.6215 72.1272C12.3548 72.0265 11.0956 71.2709 10.1385 69.4072C8.77852 66.7879 10.1385 63.4131 12.9593 62.3049C14.3193 61.7508 17.0897 62.4056 18.2986 63.5138Z" fill="#FF5A5F"/>
</g>
<g id="Vector_8">
<path d="M23.2852 73.4871C20.817 74.5449 19.1548 78.1212 20.0615 80.4887C22.3785 86.6339 31.0927 85.3746 31.0927 78.8768C31.0927 76.3583 30.0349 74.696 27.7682 73.739C25.9045 72.9331 24.7963 72.8827 23.2852 73.4871ZM28.9771 75.3005C30.1356 76.3583 30.3875 76.9123 30.3371 78.8264C30.2364 81.5465 29.229 82.8057 26.5593 83.5109C24.2423 84.065 21.7741 83.1079 21.22 81.3953C20.4141 78.9775 21.0689 75.0486 22.2778 75.0486C22.6808 75.0486 23.0334 74.8471 23.0334 74.5953C23.0334 73.9908 24.9474 73.5879 26.4586 73.8397C27.1134 73.9908 28.2215 74.6457 28.9771 75.3005Z" fill="#404040"/>
<path d="M28.9771 75.3005C30.1356 76.3583 30.3875 76.9123 30.3371 78.8264C30.2364 81.5465 29.229 82.8057 26.5593 83.5109C24.2423 84.065 21.7741 83.1079 21.22 81.3953C20.4141 78.9775 21.0689 75.0486 22.2778 75.0486C22.6808 75.0486 23.0334 74.8471 23.0334 74.5953C23.0334 73.9908 24.9474 73.5879 26.4586 73.8397C27.1134 73.9908 28.2215 74.6457 28.9771 75.3005Z" fill="#4FAB61"/>
</g>
<g id="Vector_9">
<path d="M38.1952 74.0917C36.0292 75.4013 34.77 77.668 33.8129 81.9999C32.9063 86.1303 33.0574 87.3392 34.77 89.354C36.3818 91.2177 39.1522 91.3185 41.0159 89.5555C43.2826 87.4903 45.7004 80.1362 44.9952 77.4162C44.1893 74.1421 40.8145 72.4798 38.1952 74.0917ZM42.7285 75.5021C43.736 76.308 43.9374 76.9124 43.8871 78.9273C43.7863 81.8992 42.0737 86.8859 40.5626 88.4977C39.253 89.9081 37.1878 90.0088 35.5759 88.6992C34.1151 87.4903 34.0144 84.7703 35.2737 80.4888C36.8855 75.1998 39.8574 73.185 42.7285 75.5021Z" fill="#404040"/>
<path d="M42.7285 75.5021C43.736 76.308 43.9374 76.9124 43.8871 78.9273C43.7863 81.8992 42.0737 86.8859 40.5626 88.4977C39.253 89.9081 37.1878 90.0088 35.5759 88.6992C34.1151 87.4903 34.0144 84.7703 35.2737 80.4888C36.8855 75.1998 39.8574 73.185 42.7285 75.5021Z" fill="white"/>
</g>
<g id="Vector_10">
<path d="M61.5672 31.327L46.9597 45.8338L49.4279 48.1005C50.7879 49.3597 52.1479 50.3168 52.4501 50.2664C52.7524 50.1657 59.4013 43.6175 67.2591 35.7093L81.4637 21.3536L78.8444 19.1373L76.1748 16.8706L61.5672 31.327ZM77.6859 23.1166C76.6785 24.124 70.7347 30.2189 64.4384 36.6159C58.142 43.0634 52.702 48.3523 52.299 48.3523C51.4931 48.3523 49.2264 46.4382 49.2264 45.733C49.2264 45.5316 49.9316 44.6753 50.7375 43.8693C51.5938 43.1138 57.6887 37.0693 64.388 30.5714L76.477 18.6839L77.9881 19.9936L79.4992 21.3536L77.6859 23.1166Z" fill="#404040"/>
<path d="M77.6859 23.1166C76.6785 24.124 70.7347 30.2189 64.4384 36.6159C58.142 43.0634 52.702 48.3523 52.299 48.3523C51.4931 48.3523 49.2264 46.4382 49.2264 45.733C49.2264 45.5316 49.9316 44.6753 50.7375 43.8693C51.5938 43.1138 57.6887 37.0693 64.388 30.5714L76.477 18.6839L77.9881 19.9936L79.4992 21.3536L77.6859 23.1166Z" fill="#404040"/>
</g>
<path id="Vector_11" d="M48.2189 51.2234C48.2189 51.5256 49.4278 53.7923 50.939 56.2101C52.4501 58.6782 53.659 60.7434 53.5582 60.7938C53.5079 60.8945 51.493 59.6856 49.176 58.1745C46.8589 56.6634 44.7434 55.4041 44.4411 55.4041C43.8367 55.4041 50.8886 62.5568 56.782 67.9464C60.3583 71.2205 61.4161 71.9257 63.1791 72.1776L65.345 72.4294L64.9924 70.3642C64.7406 68.5509 63.7331 67.2413 57.8901 60.9449C48.3197 50.6693 48.2189 50.5685 48.2189 51.2234ZM60.0057 65.2768C60.7109 66.2842 60.6605 66.4857 59.8042 67.2413C58.8975 68.0976 58.6961 67.9968 55.7746 65.2264C52.8531 62.3553 52.8027 62.3049 53.8101 61.5494C54.4145 61.096 54.7168 60.5419 54.5153 59.9879C54.2131 59.1316 58.7968 63.5642 60.0057 65.2768ZM63.1287 68.2487C63.4813 69.1553 62.4739 70.5154 61.4665 70.5154C60.6101 70.5154 60.1064 69.3065 60.5094 68.2487C60.862 67.2413 62.7761 67.2916 63.1287 68.2487Z" fill="#404040"/>
<g id="Vector_12">
<path d="M65.8486 69.911C65.8486 70.7169 66.1509 71.674 66.5035 72.1273C67.8635 73.8903 82.1184 84.5689 83.4784 84.8711C85.6947 85.3748 87.8607 84.0148 88.5658 81.6978C89.4221 78.8266 88.5155 76.1066 85.7955 73.6384C83.0251 71.0695 80.7584 70.5658 77.6354 71.7747C74.3613 73.034 71.5405 72.5807 68.3672 70.314L65.8486 68.5006V69.911ZM84.8384 74.6459C86.9036 76.3585 87.7095 80.8415 86.1984 82.3022C84.6873 83.8637 82.5214 83.3096 79.9021 80.64C77.8872 78.6755 77.4339 77.8696 77.4339 76.4592C77.4339 74.7466 78.3406 73.437 79.9524 72.9333C80.7584 72.631 83.6799 73.6888 84.8384 74.6459ZM76.1243 73.9407C76.8798 73.4873 76.9302 73.5881 76.5272 74.394C75.9732 75.4014 75.9228 75.6029 75.9228 77.114C75.9228 78.0207 75.5198 77.8192 72.9005 75.754C71.2383 74.4444 69.8783 73.3362 69.8783 73.2859C69.8783 73.2355 71.0872 73.437 72.5479 73.7896C74.3613 74.1925 75.5702 74.2429 76.1243 73.9407Z" fill="#FF5A5F"/>
<path d="M76.1243 73.9407C76.8798 73.4873 76.9302 73.5881 76.5272 74.394C75.9732 75.4014 75.9228 75.6029 75.9228 77.114C75.9228 78.0207 75.5198 77.8192 72.9005 75.754C71.2383 74.4444 69.8783 73.3362 69.8783 73.2859C69.8783 73.2355 71.0872 73.437 72.5479 73.7896C74.3613 74.1925 75.5702 74.2429 76.1243 73.9407Z" fill="#FF5A5F"/>
</g>
<g id="Vector_13">
<path d="M61.9196 75.4013C63.6826 78.9273 63.6826 80.6399 61.8189 84.1155C60.0559 87.2888 59.9551 89.1022 61.2648 91.9229C62.3729 94.3407 63.9848 95.9022 66.453 96.96C69.0219 98.0178 70.0797 97.9171 71.7923 96.4563C74.613 94.0889 74.5123 93.3837 69.2737 82.9569C66.7048 77.7688 64.2367 73.4369 63.8337 73.3361C63.4307 73.2354 62.4737 72.9835 61.7685 72.8324L60.4588 72.5302L61.9196 75.4013ZM68.3671 84.5184C68.3671 85.0221 68.1152 85.0221 67.3093 84.5688C66.7048 84.2666 65.5967 84.1155 64.7907 84.2162C63.9848 84.3673 63.33 84.4177 63.33 84.317C63.33 84.2666 63.6826 83.3599 64.1359 82.3021C64.6396 81.0429 64.8411 79.6828 64.6396 78.3732C64.3878 76.4087 64.4885 76.5095 66.3522 80.0858C67.41 82.151 68.3167 84.1658 68.3671 84.5184ZM68.2663 86.634C70.3315 87.8933 71.893 90.4118 71.893 92.5274C71.893 96.1037 68.1656 96.8593 64.9418 93.9378C59.7537 89.3037 62.524 83.1584 68.2663 86.634Z" fill="#FF5A5F"/>
<path d="M68.3671 84.5184C68.3671 85.0221 68.1152 85.0221 67.3093 84.5688C66.7048 84.2666 65.5967 84.1155 64.7907 84.2162C63.9848 84.3673 63.33 84.4177 63.33 84.317C63.33 84.2666 63.6826 83.3599 64.1359 82.3021C64.6396 81.0429 64.8411 79.6828 64.6396 78.3732C64.3878 76.4087 64.4885 76.5095 66.3522 80.0858C67.41 82.151 68.3167 84.1658 68.3671 84.5184Z" fill="#FF5A5F"/>
</g>
</g>
</svg>
